grf
version=1
nRows=15
nColumns=37
inDegrees=no
endheader
time	ground_force_1_vx	ground_force_1_vy	ground_force_1_vz	ground_force_1_px	ground_force_1_py	ground_force_1_pz	ground_moment_1_mx	ground_moment_1_my	ground_moment_1_mz	ground_force_2_vx	ground_force_2_vy	ground_force_2_vz	ground_force_2_px	ground_force_2_py	ground_force_2_pz	ground_moment_2_mx	ground_moment_2_my	ground_moment_2_mz	ground_force_3_vx	ground_force_3_vy	ground_force_3_vz	ground_force_3_px	ground_force_3_py	ground_force_3_pz	ground_moment_3_mx	ground_moment_3_my	ground_moment_3_mz	ground_force_4_vx	ground_force_4_vy	ground_force_4_vz	ground_force_4_px	ground_force_4_py	ground_force_4_pz	ground_moment_4_mx	ground_moment_4_my	ground_moment_4_mz
      0.00000000	      0.00000000	     -0.00000000	      0.00000000	      0.00000000	      0.00000000	      0.00000000	      0.00000000	      0.00000000	      0.00000000	     30.76645088	     52.99634933	   -329.71560669	   -398.22403729	  -1165.24649946	      0.00000000	      0.00000000	     -0.00000000	  -1450.89635148	     -9.40335340	   -116.71169199	   -501.32659912	   -305.32286815	   -584.33944535	      0.00000000	      0.00000000	     -0.00000000	   -283.21280261	      0.00000000	     -0.00000000	      0.00000000	      0.00000000	      0.00000000	      0.00000000	      0.00000000	      0.00000000	      0.00000000
      0.01000000	      0.00000000	     -0.00000000	      0.00000000	      0.00000000	      0.00000000	      0.00000000	      0.00000000	      0.00000000	      0.00000000	     30.82810211	     52.02693939	   -333.30194092	   -395.77944993	  -1166.43178194	      0.00000000	      0.00000000	     -0.00000000	  -1653.45166217	     -7.78151714	   -115.81466607	   -503.92434692	   -305.48087945	   -585.53731798	      0.00000000	      0.00000000	     -0.00000000	   -500.40985027	      0.00000000	     -0.00000000	      0.00000000	      0.00000000	      0.00000000	      0.00000000	      0.00000000	      0.00000000	      0.00000000
      0.02000000	      0.00000000	     -0.00000000	      0.00000000	      0.00000000	      0.00000000	      0.00000000	      0.00000000	      0.00000000	      0.00000000	     30.30621338	     54.67539215	   -345.11233521	   -390.85716312	  -1169.72040540	      0.00000000	      0.00000000	     -0.00000000	  -1340.53293266	     -6.57782939	   -114.89334812	   -509.51126099	   -306.93533650	   -586.29064202	      0.00000000	      0.00000000	     -0.00000000	   -671.36839491	      0.00000000	     -0.00000000	      0.00000000	      0.00000000	      0.00000000	      0.00000000	      0.00000000	      0.00000000	      0.00000000
      0.03000000	      0.00000000	     -0.00000000	      0.00000000	      0.00000000	      0.00000000	      0.00000000	      0.00000000	      0.00000000	      0.00000000	     24.55839157	     59.93380737	   -362.41329956	   -382.32817133	  -1172.70156908	      0.00000000	      0.00000000	      0.00000000	  -1443.05510974	     -5.27204944	   -114.70468094	   -514.14923096	   -307.99038887	   -587.85301778	      0.00000000	      0.00000000	     -0.00000000	  -1040.60204088	      0.00000000	     -0.00000000	      0.00000000	      0.00000000	      0.00000000	      0.00000000	      0.00000000	      0.00000000	      0.00000000
      0.04000000	      0.00000000	     -0.00000000	      0.00000000	      0.00000000	      0.00000000	      0.00000000	      0.00000000	      0.00000000	      0.00000000	     20.02119637	     65.14054871	   -376.48980713	   -373.91728791	  -1177.42359805	      0.00000000	     -0.00000000	     -0.00000000	  -1190.58476626	     -3.23153684	   -114.30075808	   -522.23089600	   -308.93576712	   -588.54099934	      0.00000000	      0.00000000	     -0.00000000	  -1253.31268319	      0.00000000	     -0.00000000	      0.00000000	      0.00000000	      0.00000000	      0.00000000	      0.00000000	      0.00000000	      0.00000000
      0.05000000	      0.00000000	     -0.00000000	      0.00000000	      0.00000000	      0.00000000	      0.00000000	      0.00000000	      0.00000000	      0.00000000	     18.41346931	     68.90982819	   -384.25976562	   -367.88219537	  -1180.40214800	      0.00000000	      0.00000000	      0.00000000	   -727.18075920	     -1.03901287	   -114.11036673	   -526.57336426	   -309.82949218	   -588.70924406	      0.00000000	      0.00000000	     -0.00000000	  -1448.15328211	      0.00000000	     -0.00000000	      0.00000000	      0.00000000	      0.00000000	      0.00000000	      0.00000000	      0.00000000	      0.00000000
      0.06000000	      0.00000000	     -0.00000000	      0.00000000	      0.00000000	      0.00000000	      0.00000000	      0.00000000	      0.00000000	      0.00000000	     16.65902901	     73.55840302	   -390.86788940	   -361.58277802	  -1183.87007087	      0.00000000	      0.00000000	     -0.00000000	   -491.62273709	      0.55790277	   -113.70726018	   -527.91723633	   -311.02272778	   -589.62144960	      0.00000000	      0.00000000	     -0.00000000	  -1800.06307962	      0.00000000	     -0.00000000	      0.00000000	      0.00000000	      0.00000000	      0.00000000	      0.00000000	      0.00000000	      0.00000000
      0.07000000	      0.00000000	     -0.00000000	      0.00000000	      0.00000000	      0.00000000	      0.00000000	      0.00000000	      0.00000000	      0.00000000	     15.13981724	     78.68414307	   -402.52230835	   -356.65269274	  -1188.55042449	      0.00000000	      0.00000000	     -0.00000000	   -216.18947709	      1.61114924	   -112.67281356	   -527.81579590	   -311.24564397	   -589.78610067	      0.00000000	      0.00000000	     -0.00000000	  -1816.40804908	      0.00000000	     -0.00000000	      0.00000000	      0.00000000	      0.00000000	      0.00000000	      0.00000000	      0.00000000	      0.00000000
      0.08000000	      0.00000000	     -0.00000000	      0.00000000	      0.00000000	      0.00000000	      0.00000000	      0.00000000	      0.00000000	      0.00000000	     16.24730873	     82.70203400	   -410.74829102	   -353.18769752	  -1189.48774477	      0.00000000	      0.00000000	      0.00000000	    368.95032114	      2.39518144	   -111.60180685	   -521.64697266	   -312.00053177	   -590.30929952	      0.00000000	      0.00000000	     -0.00000000	  -2066.61016682	      0.00000000	     -0.00000000	      0.00000000	      0.00000000	      0.00000000	      0.00000000	      0.00000000	      0.00000000	      0.00000000
      0.09000000	      0.00000000	     -0.00000000	      0.00000000	      0.00000000	      0.00000000	      0.00000000	      0.00000000	      0.00000000	      0.00000000	     15.67483711	     86.28878784	   -420.57537842	   -350.43126518	  -1191.26499690	      0.00000000	      0.00000000	      0.00000000	    522.85180276	      3.00548094	   -109.80975368	   -513.39727783	   -311.57952749	   -590.17385286	      0.00000000	      0.00000000	     -0.00000000	  -2095.52359508	      0.00000000	     -0.00000000	      0.00000000	      0.00000000	      0.00000000	      0.00000000	      0.00000000	      0.00000000	      0.00000000
      0.10000000	      0.00000000	     -0.00000000	      0.00000000	      0.00000000	      0.00000000	      0.00000000	      0.00000000	      0.00000000	      0.00000000	     17.85230827	     88.66863251	   -430.60717773	   -347.63921765	  -1191.26702847	      0.00000000	      0.00000000	      0.00000000	    969.92674695	      3.51197675	   -108.73426087	   -503.33322144	   -311.02690158	   -590.58439494	      0.00000000	      0.00000000	     -0.00000000	  -2346.08689295	      0.00000000	     -0.00000000	      0.00000000	      0.00000000	      0.00000000	      0.00000000	      0.00000000	      0.00000000	      0.00000000
      0.11000000	      0.00000000	     -0.00000000	      0.00000000	      0.00000000	      0.00000000	      0.00000000	      0.00000000	      0.00000000	      0.00000000	     17.41274261	     89.66805267	   -437.13195801	   -346.24766426	  -1192.89705123	      0.00000000	      0.00000000	      0.00000000	   1101.79306953	      3.27239768	   -107.27484922	   -494.50210571	   -310.28557897	   -590.75036347	      0.00000000	      0.00000000	     -0.00000000	  -2588.68749808	      0.00000000	     -0.00000000	      0.00000000	      0.00000000	      0.00000000	      0.00000000	      0.00000000	      0.00000000	      0.00000000
      0.12000000	      0.00000000	     -0.00000000	      0.00000000	      0.00000000	      0.00000000	      0.00000000	      0.00000000	      0.00000000	      0.00000000	     18.29768944	     88.90655518	   -440.66342163	   -343.76418030	  -1192.76592536	      0.00000000	      0.00000000	      0.00000000	   1333.45140467	      2.04033871	   -106.89548510	   -487.45364380	   -308.67771137	   -589.73762979	      0.00000000	      0.00000000	     -0.00000000	  -2667.88224922	      0.00000000	     -0.00000000	      0.00000000	      0.00000000	      0.00000000	      0.00000000	      0.00000000	      0.00000000	      0.00000000
      0.13000000	      0.00000000	     -0.00000000	      0.00000000	      0.00000000	      0.00000000	      0.00000000	      0.00000000	      0.00000000	      0.00000000	     17.84210205	     89.82524872	   -440.91036987	   -341.69048594	  -1193.06753286	      0.00000000	      0.00000000	      0.00000000	   1440.70302355	     -0.11639110	   -105.40333556	   -479.28091431	   -307.01824559	   -589.34589473	      0.00000000	      0.00000000	     -0.00000000	  -3028.73856609	      0.00000000	     -0.00000000	      0.00000000	      0.00000000	      0.00000000	      0.00000000	      0.00000000	      0.00000000	      0.00000000
      0.14000000	      0.00000000	     -0.00000000	      0.00000000	      0.00000000	      0.00000000	      0.00000000	      0.00000000	      0.00000000	      0.00000000	     17.72607040	     90.14636993	   -443.52246094	   -340.03668254	  -1194.36415460	      0.00000000	      0.00000000	      0.00000000	   1527.36172817	     -1.20648361	   -103.72498311	   -469.60906982	   -305.18984667	   -589.05212784	      0.00000000	      0.00000000	     -0.00000000	  -3313.73330919	      0.00000000	     -0.00000000	      0.00000000	      0.00000000	      0.00000000	      0.00000000	      0.00000000	      0.00000000	      0.00000000
